<svg xmlns="http://www.w3.org/2000/svg" width="120.769" height="120.769" viewBox="0 0 120.769 120.769">
  <defs>
    <style>
      .cls-1 {
        fill: #fefffe;
      }
    </style>
  </defs>
  <g id="maO1zm.tif" transform="translate(1388.768 -1484.231)">
    <g id="Group_4" data-name="Group 4" transform="translate(-1388.768 1484.231)">
      <path id="Path_26" data-name="Path 26" class="cls-1" d="M-1311.1,1605c-1.674-.713-3.514-.661-5.244-1.158-15.677-4.5-25.337-14.665-28.868-30.593a31.356,31.356,0,0,1-.518-10.525c.1-.82-.243-.817-.871-.772-13.243.934-24.254-3.667-32.931-13.637-14.726-16.921-11.418-43.723,6.894-56.692a38.936,38.936,0,0,1,60.458,21.523,34.761,34.761,0,0,1,1.143,13.129c-.079.722-.064,1.045.878.992,16.025-.9,28.271,5.568,36.78,19.1a36.608,36.608,0,0,1,5.12,15.057c.031.247-.135.593.26.718v8.036c-.506.414-.348,1.035-.422,1.552a39.067,39.067,0,0,1-30.1,32.344,39.512,39.512,0,0,0-4.788.926Zm4.144-74.025A35.119,35.119,0,0,0-1342.024,1566a35.129,35.129,0,0,0,35,35.1,35.127,35.127,0,0,0,35.131-35.09A35.122,35.122,0,0,0-1306.957,1530.975Zm-65.181,7.784c2.057-3.236,3.746-4.45,7.3-5.218,1.86-.4,3.729-.761,5.6-1.122a4.322,4.322,0,0,0,2.47-1.189c.419-.445.581-.778.038-1.3a7.609,7.609,0,0,1-1.48-1.91,1.545,1.545,0,0,0-1.559-.973,5.77,5.77,0,0,1-5.031-8.3,2.252,2.252,0,0,0,.095-1.925,12.891,12.891,0,0,1,8.96-16.566c2.919-.769,5.892-.468,8.837-.421a12.89,12.89,0,0,1,11.952,17.077,2.113,2.113,0,0,0,.118,1.811c1.544,3.127.011,7.213-3.354,7.93a7.085,7.085,0,0,0-4.555,3.064c-.627.839-.494,1.181.141,1.745.976.866,2.222.913,3.392,1.194,2.779.666,5.729.731,8.238,2.335.454.29.676-.078.943-.274a36.98,36.98,0,0,1,5.587-3.419,1.689,1.689,0,0,0,1-1.234,27.774,27.774,0,0,0,.452-11.808c-2.557-14.906-17.769-25.1-32.514-21.748a27.259,27.259,0,0,0-21.056,31.946A25.648,25.648,0,0,0-1372.138,1538.759Zm28.19,15.022a30.921,30.921,0,0,1-13.6-.411,30.763,30.763,0,0,1-12.121-6.188,30.962,30.962,0,0,1-8.308-10.657,30.755,30.755,0,0,1-3.005-13.281c-.035-16.891,13.668-30.974,30.4-31.218a30.189,30.189,0,0,1,22.359,8.753c7.933,7.757,10.768,17.27,9.08,28.247,1.214-.329,2.326-.678,3.462-.921.6-.128.639-.487.69-.955a36.109,36.109,0,0,0,.063-7.406,35.132,35.132,0,0,0-39.515-31.332,35.1,35.1,0,0,0-30.246,38.166A35.043,35.043,0,0,0-1345.837,1558c.565-.065.844-.225.969-.825C-1344.647,1556.109-1344.3,1555.068-1343.948,1553.781Zm10.084-15.858a5.794,5.794,0,0,0-1.969-.62c-2.293-.493-4.6-.922-6.869-1.52a1.033,1.033,0,0,0-1.367.456c-1.716,2.359-3.5,4.67-5.21,7.032-.444.612-.643.6-1.08,0-1.713-2.361-3.473-4.689-5.228-7.019-.221-.293-.337-.8-.9-.6-2.725.954-5.616,1.175-8.392,1.9a5.711,5.711,0,0,0-4.088,3.8,1.293,1.293,0,0,0,.382,1.6c7.46,6.694,16.031,8.95,25.8,6.557a1.226,1.226,0,0,0,.94-.655A39.056,39.056,0,0,1-1333.864,1537.923Zm-9.11-22.5a30.412,30.412,0,0,1,3.52.036c.757.089.954-.1,1.108-.794a8.959,8.959,0,0,0-6.812-10.684,25.208,25.208,0,0,0-9.3,0,8.922,8.922,0,0,0-6.819,10.665c.079.346.134.966.465.865,1.157-.356,2.45.3,3.552-.768a3.893,3.893,0,0,1,4.24-1.122A21.482,21.482,0,0,0-1342.973,1515.423Zm-12.682,6.069c0,.648-.023,1.3,0,1.943a5.864,5.864,0,0,0,5.77,5.586,5.858,5.858,0,0,0,5.893-5.584c.042-1.01-.047-2.029.031-3.035.068-.871-.137-1.183-1.093-1.142a19.74,19.74,0,0,1-8.169-1.5,1.6,1.6,0,0,0-2.433,1.548C-1355.692,1520.032-1355.658,1520.763-1355.655,1521.492Zm3.367,11.055c-.31-.113-.535-.15-.7.124a.557.557,0,0,0,.088.667c.916,1.228,1.841,2.449,2.751,3.682.22.3.384.369.633.03.933-1.266,1.88-2.52,2.819-3.781a.508.508,0,0,0,0-.666c-.149-.19-.347-.161-.547-.1A8.3,8.3,0,0,1-1352.288,1532.547Zm-7.266-11.308a1.871,1.871,0,0,0-.006-.481c-.132-.477.359-1.289-.339-1.388-.682-.1-1.221.515-1.486,1.21a1.822,1.822,0,0,0,.283,1.82c.323.439.8.844,1.306.713.529-.139.145-.756.232-1.151A3.425,3.425,0,0,0-1359.554,1521.239Zm19.473-1.968c0,1.132.034,2.177-.011,3.218-.036.812.313.763.853.483a1.826,1.826,0,0,0,1.084-1.969A1.962,1.962,0,0,0-1340.081,1519.271Z" transform="translate(1388.768 -1484.231)"/>
      <path id="Path_27" data-name="Path 27" class="cls-1" d="M-1319.624,1839.591a5.776,5.776,0,0,1-5.723-5.239,1.758,1.758,0,0,0-1.127-1.6,54.926,54.926,0,0,1-24.673-28.427c-.356-.9-.2-1.207.7-1.5,2.538-.83,2.52-.87,3.548,1.554a51.025,51.025,0,0,0,22.124,24.89,1.22,1.22,0,0,0,1.669-.1,5.654,5.654,0,0,1,6.894-.194,5.871,5.871,0,0,1,2.213,6.57A5.911,5.911,0,0,1-1319.624,1839.591Zm.024-3.9a1.965,1.965,0,0,0,1.979-1.881,1.966,1.966,0,0,0-1.85-2.01,1.961,1.961,0,0,0-2.039,1.941A1.962,1.962,0,0,0-1319.6,1835.693Z" transform="translate(1360.464 -1724.667)"/>
      <path id="Path_28" data-name="Path 28" class="cls-1" d="M-1085.536,1514.029a5.875,5.875,0,0,1,5.474-5.892,5.785,5.785,0,0,1,6.154,5.279,1.657,1.657,0,0,0,1.058,1.519,54.876,54.876,0,0,1,24.74,28.47c.361.914.183,1.21-.7,1.5-2.536.839-2.516.874-3.548-1.559a50.963,50.963,0,0,0-22.087-24.879,1.321,1.321,0,0,0-1.774.134,5.453,5.453,0,0,1-6.052.592A5.8,5.8,0,0,1-1085.536,1514.029Zm7.787-.055a1.96,1.96,0,0,0-1.912-1.947,1.96,1.96,0,0,0-1.977,1.882,1.959,1.959,0,0,0,1.972,2.008A1.964,1.964,0,0,0-1077.749,1513.974Z" transform="translate(1159.552 -1502.295)"/>
      <path id="Path_29" data-name="Path 29" class="cls-1" d="M-936.117,1677.548c.055.363-.083.544-.444.57-.079.006-.155.047-.235.056-1.028.118-2.378.9-2.978.325-.685-.659-.632-2.079-.916-3.165-.079-.3.009-.454.3-.518.117-.025.226-.1.343-.117,1.02-.158,2.4-1.1,2.915-.55C-936.406,1674.923-936.419,1676.382-936.117,1677.548Z" transform="translate(1050.084 -1627.664)"/>
      <path id="Path_30" data-name="Path 30" class="cls-1" d="M-1356.224,1773.969c.1.433-.28.429-.515.5-.852.246-1.729.412-2.568.693-.592.2-.69-.072-.777-.543a12.831,12.831,0,0,0-.52-2.235c-.38-.995-.043-1.3.932-1.461,2.618-.425,2.613-.463,3.233,2.106C-1356.364,1773.339-1356.3,1773.654-1356.224,1773.969Z" transform="translate(1367.594 -1700.776)"/>
      <path id="Path_31" data-name="Path 31" class="cls-1" d="M-1165.811,1755.1a7.884,7.884,0,0,1,5.816,2.328c1.74,1.7,3.485,3.4,5.153,5.17.724.769,1.137.854,1.946.036q10.184-10.293,20.462-20.492c3.061-3.052,7.105-3.492,10.361-1.175a7.71,7.71,0,0,1,1.8,10.866,14.96,14.96,0,0,1-1.533,1.724q-12.94,12.958-25.894,25.9c-3.963,3.961-8.353,3.945-12.337-.04-3.642-3.642-7.325-7.245-10.911-10.941a7.745,7.745,0,0,1,1.883-12.532A7.255,7.255,0,0,1-1165.811,1755.1Zm.147,3.9a6.328,6.328,0,0,0-.864.141,3.865,3.865,0,0,0-1.6,6.649c3.608,3.674,7.273,7.292,10.915,10.933,2.3,2.3,4.415,2.31,6.7.023q12.99-12.987,25.976-25.979a10.26,10.26,0,0,0,1.066-1.164,3.836,3.836,0,0,0-2.083-6.029c-1.743-.5-3.048.243-4.237,1.434-7.7,7.721-15.437,15.415-23.112,23.165-.816.824-1.208.71-1.937-.044-2.507-2.6-5.09-5.117-7.638-7.672A4.327,4.327,0,0,0-1165.664,1759Z" transform="translate(1225.924 -1677.186)"/>
    </g>
  </g>
</svg>
